<?xml version="1.0" encoding="UTF-8" standalone="no"?>
<!-- Created with Inkscape (http://www.inkscape.org/) -->

<svg
   width="40.029499mm"
   height="32.117828mm"
   viewBox="0 0 40.029499 32.117828"
   version="1.1"
   id="svg1"
   xmlns="http://www.w3.org/2000/svg"
   xmlns:svg="http://www.w3.org/2000/svg">
  <defs
     id="defs1" />
  <g
     id="layer3"
     transform="translate(-43.073004,-233.94748)">
    <path
       id="path12-0-6"
       style="display:inline;fill:#00D8C0;fill-opacity:1;stroke:#ffffff;stroke-width:0.2;stroke-dasharray:none;stroke-opacity:0.2"
       d="m 83.000022,255.9996 -24.169467,0.002 c -1.099919,0 -1.966805,0.86664 -1.966805,1.9358 0,1.06916 0.866886,1.93631 1.966805,1.93631 L 83,259.87471 Z" />
    <path
       id="path2-2-3-9"
       style="display:inline;fill:#888888;fill-opacity:1;stroke:#ffffff;stroke-width:0.2;stroke-dasharray:none;stroke-opacity:0.5"
       d="m 83.001008,261.07014 c -4.659437,-1.50693 -8.001006,-5.89302 -8.001006,-11.06911 v -5.2e-4 -5.2e-4 c 4.13e-4,-5.32739 3.16079,-9.8136 7.902877,-11.17968 v -4.77281 l -23.717415,0.004 c -8.78429,0.0146 -16.011886,7.2611 -16.01246,16.03158 v 5.1e-4 5.2e-4 c 5.65e-4,8.77049 7.109474,15.87969 15.953032,15.8812 h 9.220626 c 1.249561,0 2.206067,-0.97006 2.206067,-2.16731 0,-1.19725 -0.956114,-2.16783 -2.231906,-2.16783 l -8.990665,-0.0114 c -6.451791,-0.0129 -11.597742,-5.20849 -11.597742,-11.61738 0,-6.40889 5.145707,-11.60343 11.493355,-11.60343 6.347649,0 11.493356,5.19457 11.493356,11.60343 0,7.62084 5.274819,13.99481 12.283334,15.58362 z" />
  </g>
</svg>
