<svg xmlns="http://www.w3.org/2000/svg" xmlns:xlink="http://www.w3.org/1999/xlink" xmlns:lucid="lucid" width="921.5" height="671.5"><g transform="translate(-459 -219)" lucid:page-tab-id="_zQHuZAtERDN"><path d="M720 226a6 6 0 0 1 6-6h308a6 6 0 0 1 6 6v88a6 6 0 0 1-6 6H726a6 6 0 0 1-6-6z" stroke="#000" stroke-width="2" fill-opacity="0"/><use xlink:href="#a" transform="matrix(1,0,0,1,732,232) translate(77.01475694444446 45.27777777777778)"/><path d="M880 321.5v4.88m0 4.88v9.77m0 4.88v9.78m0 4.88v9.76m0 4.88v9.77m0 4.88v9.77m0 4.88v9.76m0 4.9v9.75m0 4.9v9.76m0 4.88v9.76m0 4.9v9.75m0 4.88v4.9" stroke="#3a414a" fill="none"/><path d="M880.48 321.5h-.96v-.5h.96z" stroke="#3a414a" stroke-width=".05" fill="#3a414a"/><path d="M880 497.38l-4.63-14.26h9.26z" stroke="#3a414a" fill="#3a414a"/><path d="M760 506a6 6 0 0 1 6-6h228a6 6 0 0 1 6 6v88a6 6 0 0 1-6 6H766a6 6 0 0 1-6-6z" stroke="#000" stroke-width="2" fill-opacity="0"/><use xlink:href="#b" transform="matrix(1,0,0,1,772,512) translate(40.25911458333334 45.27777777777778)"/><path d="M880 601.5V654a6 6 0 0 1-6 6H586a6 6 0 0 0-6 6v36.62" stroke="#3a414a" fill="none"/><path d="M880.48 601.5h-.96v-.5h.96z" stroke="#3a414a" stroke-width=".05" fill="#3a414a"/><path d="M580 717.38l-4.63-14.26h9.26z" stroke="#3a414a" fill="#3a414a"/><path d="M460 726a6 6 0 0 1 6-6h228a6 6 0 0 1 6 6v88a6 6 0 0 1-6 6H466a6 6 0 0 1-6-6z" stroke="#000" stroke-width="2" fill-opacity="0"/><use xlink:href="#c" transform="matrix(1,0,0,1,472,732) translate(28.339626736111114 45.27777777777778)"/><path d="M880 601.5v101.12" stroke="#3a414a" fill="none"/><path d="M880.48 601.5h-.96v-.5h.96z" stroke="#3a414a" stroke-width=".05" fill="#3a414a"/><path d="M880 717.38l-4.63-14.26h9.26z" stroke="#3a414a" fill="#3a414a"/><path d="M760 726a6 6 0 0 1 6-6h228a6 6 0 0 1 6 6v88a6 6 0 0 1-6 6H766a6 6 0 0 1-6-6z" stroke="#000" stroke-width="2" fill-opacity="0"/><use xlink:href="#d" transform="matrix(1,0,0,1,772,732) translate(28.090060763888886 45.27777777777778)"/><use xlink:href="#e" transform="matrix(1,0,0,1,772,732) translate(116.56662326388889 45.27777777777778)"/><path d="M880 601.5V654a6 6 0 0 0 6 6h288a6 6 0 0 1 6 6v36.62" stroke="#3a414a" fill="none"/><path d="M880.48 601.5h-.96v-.5h.96z" stroke="#3a414a" stroke-width=".05" fill="#3a414a"/><path d="M1180 717.38l-4.63-14.26h9.27z" stroke="#3a414a" fill="#3a414a"/><path d="M1060 726a6 6 0 0 1 6-6h228a6 6 0 0 1 6 6v88a6 6 0 0 1-6 6h-228a6 6 0 0 1-6-6z" stroke="#000" stroke-width="2" fill-opacity="0"/><use xlink:href="#d" transform="matrix(1,0,0,1,1072,732) translate(26.20746527777777 45.27777777777778)"/><use xlink:href="#f" transform="matrix(1,0,0,1,1072,732) translate(114.68402777777777 45.27777777777778)"/><path d="M1020 294c0 3.3-13.43 6-30 6s-30-2.7-30-6v-48c0-3.3 13.43-6 30-6s30 2.7 30 6z" stroke="#000" stroke-width="2" fill-opacity="0"/><path d="M1020 246c0 3.3-13.43 6-30 6s-30-2.7-30-6" stroke="#000" stroke-width="2" fill="none"/><use xlink:href="#g" transform="matrix(1,0,0,1,965,257) translate(-2.7940538194444393 27.08376736111111)"/><path d="M1021.5 270h33.5a6 6 0 0 1 6 6v268a6 6 0 0 1-6 6h-37.62" stroke="#3a414a" fill="none"/><path d="M1021.5 270.48h-.5v-.96h.5z" stroke="#3a414a" stroke-width=".05" fill="#3a414a"/><path d="M1002.62 550l14.26-4.63v9.26z" stroke="#3a414a" fill="#3a414a"/><use xlink:href="#h" transform="matrix(1,0,0,1,927.2345758897684,409.24404905599494) translate(0 17.22222222222222)"/><use xlink:href="#i" transform="matrix(1,0,0,1,927.2345758897684,409.24404905599494) translate(59.791666666666664 17.22222222222222)"/><path d="M1021.5 270h4.93m4.94 0h1m4.93 0h9.87m4.94 0h1m4.93 0h9.88m4.94 0h1m4.93 0h9.87m4.94 0h1m4.92 0h9.88m4.93 0h1m4.94 0h9.87m4.95 0h1m4.92 0h9.88m4.94 0h.97m4.94 0h9.88m4.94 0h1m4.92 0h9.88m4.94 0h.98m4.94 0h9.87m4.94 0h.98m4.93 0h9.9m4.93 0h.98m4.95 0h9.88m4.93 0h1m4.93 0h9.86m4.94 0h.98m4.94 0h9.88m4.93 0h1m4.93 0h9.87m4.94 0h.98m4.94 0h9.87m4.93 0h1m4.93 0h9.87m4.94 0h1m4.92 0h4.94a6 6 0 0 1 6 6v5m0 4.98v1m0 5v9.98m0 5v1m0 4.98v9.98m0 5v1m0 4.98v10m0 4.98v1m0 5v9.97m0 5v1m0 5v9.97m0 5v1m0 4.98v10m0 4.98v1m0 5v9.97m0 5v1m0 4.98v10m0 4.98v1m0 5v9.98m0 5v1m0 4.98v10m0 4.98v1m0 5v9.97m0 5v1m0 5v9.98m0 5v1m0 4.98v9.98m0 5v1m0 5v9.97m0 5v1m0 5v9.98m0 5v1m0 4.98v9.98m0 5v1m0 4.98v10m0 4.98v1m0 5v9.97m0 5v1m0 4.98v10m0 4.98v1m0 5v9.97m0 5v1m0 4.98v10m0 4.98v1m0 5v9.97m0 5v1m0 5v9.97m0 5v1m0 4.98v9.98m0 5v1m0 5v9.97m0 5v1m0 4.98v10m0 5v1m0 4.98v9.98m0 5v1m0 4.98v10m0 4.98v1m0 5V884a6 6 0 0 1-6 6h-4.87m-4.86 0h-.97m-4.87 0h-9.73m-4.87 0h-.97m-4.87 0h-9.74m-4.87 0h-.98m-4.87 0h-9.73m-4.87 0h-.97m-4.86 0h-9.74m-4.86 0h-.97m-4.87 0h-9.73m-4.87 0h-.97m-4.86 0h-9.73m-4.86 0h-.97m-4.87 0h-9.73m-4.87 0h-.97m-4.86 0h-9.74m-4.86 0h-.97m-4.87 0h-9.73m-4.87 0h-.97m-4.87 0h-9.74m-4.87 0h-.98m-4.87 0h-9.73m-4.87 0h-.97m-4.86 0h-9.74m-4.86 0h-.97m-4.87 0h-9.73m-4.87 0h-.97m-4.86 0H1083m-4.86 0h-.97m-4.87 0h-9.73m-4.87 0h-.97m-4.86 0H1047a6 6 0 0 1-6-6v-5.14m0-5.15v-1m0-5.16v-10.28m0-5.15v-1m0-5.16v-10.28m0-5.15v-1m0-5.16v-10.28m0-5.15v-1m0-5.16v-10.28m0-5.15v-1m0-5.16V776a6 6 0 0 0-6-6h-4.2m-4.2 0h-.83m-4.2 0h-4.2" stroke="#3a414a" fill="none"/><path d="M1021.5 270.48h-.5v-.96h.5z" stroke="#3a414a" stroke-width=".05" fill="#3a414a"/><path d="M1002.62 770l14.26-4.63v9.26z" stroke="#3a414a" fill="#3a414a"/><path d="M1021.5 270h4.93m4.94 0h1m4.93 0h9.87m4.94 0h1m4.93 0h9.88m4.94 0h1m4.93 0h9.87m4.94 0h1m4.92 0h9.88m4.93 0h1m4.94 0h9.87m4.95 0h1m4.92 0h9.88m4.94 0h.97m4.94 0h9.88m4.94 0h1m4.92 0h9.88m4.94 0h.98m4.94 0h9.87m4.94 0h.98m4.93 0h9.9m4.93 0h.98m4.95 0h9.88m4.93 0h1m4.93 0h9.86m4.94 0h.98m4.94 0h9.88m4.93 0h1m4.93 0h9.87m4.94 0h.98m4.94 0h9.87m4.93 0h1m4.93 0h9.87m4.94 0h1m4.92 0h4.94a6 6 0 0 1 6 6v5m0 4.98v1m0 5v9.98m0 5v1m0 4.98v9.98m0 5v1m0 4.98v10m0 4.98v1m0 5v9.97m0 5v1m0 5v9.97m0 5v1m0 4.98v10m0 4.98v1m0 5v9.97m0 5v1m0 4.98v10m0 4.98v1m0 5v9.98m0 5v1m0 4.98v10m0 4.98v1m0 5v9.97m0 5v1m0 5v9.98m0 5v1m0 4.98v9.98m0 5v1m0 5v9.97m0 5v1m0 5v9.98m0 5v1m0 4.98v9.98m0 5v1m0 4.98v10m0 4.98v1m0 5v9.97m0 5v1m0 4.98v10m0 4.98v1m0 5v9.97m0 5v1m0 4.98v10m0 4.98v1m0 5v9.97m0 5v1m0 5v9.97m0 5v1m0 4.98v9.98m0 5v1m0 5v9.97m0 5v1m0 4.98v10m0 5v1m0 4.98v9.98m0 5v1m0 4.98v10m0 4.98v1m0 5V884a6 6 0 0 1-6 6h-4.98m-5 0h-.98m-5 0h-9.96m-4.98 0h-1m-4.98 0h-9.97m-5 0h-.98m-5 0h-9.95m-5 0h-1m-4.97 0h-9.97m-4.98 0h-1m-4.98 0h-9.97m-4.98 0h-1m-5 0h-9.95m-5 0h-1m-4.97 0h-9.97m-4.98 0h-1m-4.98 0h-9.97m-4.98 0h-1m-5 0h-9.95m-5 0h-.98m-5 0h-9.96m-4.98 0h-1m-4.98 0h-9.97m-4.98 0h-1m-5 0h-9.95m-5 0h-.98m-5 0h-9.96m-4.98 0h-1m-4.98 0h-9.97m-5 0h-.98m-5 0h-9.95m-5 0h-.98m-5 0h-9.96m-4.98 0h-1m-4.98 0h-9.97m-5 0h-.98m-5 0h-9.95m-5 0h-1m-4.97 0h-9.97m-4.98 0h-1m-4.98 0h-9.97m-5 0h-.98m-5 0h-9.95m-5 0h-1m-4.97 0h-9.97m-4.98 0h-1m-4.98 0h-9.97m-4.98 0h-1m-5 0h-9.95m-5 0h-1m-4.97 0h-9.97m-4.98 0h-1m-4.98 0h-9.97m-5 0h-.98m-5 0h-9.95m-5 0h-1m-4.97 0h-9.97m-4.98 0h-1m-4.98 0h-9.97m-5 0H756m-5 0H746a6 6 0 0 1-6-6v-5.14m0-5.15v-1m0-5.16v-10.28m0-5.15v-1m0-5.16v-10.28m0-5.15v-1m0-5.16v-10.28m0-5.15v-1m0-5.16v-10.28m0-5.15v-1m0-5.16V776a6 6 0 0 0-6-6h-3.96m-3.95 0h-.8m-3.96 0h-3.96" stroke="#3a414a" fill="none"/><path d="M1021.5 270.48h-.5v-.96h.5z" stroke="#3a414a" stroke-width=".05" fill="#3a414a"/><path d="M702.62 770l14.26-4.63v9.26z" stroke="#3a414a" fill="#3a414a"/><g><use xlink:href="#j" transform="matrix(1,0,0,1,1219.3784722222222,447.91145833333337) translate(0 17.22222222222222)"/><use xlink:href="#k" transform="matrix(1,0,0,1,1219.3784722222222,447.91145833333337) translate(71.484375 17.22222222222222)"/></g><defs><path d="M370-1490V0H180v-1490h190" id="l"/><path d="M338-670V0H158v-1118h173l1 207c72-158 192-221 342-221 226 0 378 139 378 422V0H872v-695c0-172-96-275-252-275-161 0-282 109-282 300" id="m"/><path d="M598-1118v154H368v674c0 100 37 144 132 144 23 0 62-6 92-12L629-6c-37 13-88 20-134 20-193 0-307-107-307-290v-688H20v-154h168v-266h180v266h230" id="n"/><path d="M158 0v-1118h174v172h12c41-113 157-188 290-188 26 0 70 2 91 3v181c-11-2-60-10-108-10-161 0-279 109-279 260V0H158" id="o"/><path d="M158 0v-1118h180V0H158zm91-1301c-68 0-125-53-125-119s57-119 125-119c69 0 126 53 126 119s-57 119-126 119" id="p"/><path d="M611 442c-248 0-391-105-460-228l146-94c47 65 117 165 314 165 178 0 307-82 307-266v-224h-17C863-141 792-18 576-18c-268 0-472-195-472-546 0-346 197-568 476-568 216 0 288 133 326 193h17v-179h175V29c0 289-215 413-487 413zm-5-620c203 0 314-146 314-390 0-237-108-403-314-403-213 0-319 180-319 403 0 230 109 390 319 390" id="q"/><path d="M180 0v-1490h510c348 0 508 209 508 474 0 266-160 477-507 477H370V0H180zm190-706h312c236 0 327-133 327-310 0-176-91-307-329-307H370v617" id="r"/><path d="M613 24c-304 0-509-231-509-576 0-350 205-580 509-580 305 0 511 230 511 580 0 345-206 576-511 576zm0-161c226 0 329-195 329-415 0-222-103-419-329-419-223 0-326 196-326 419 0 220 103 415 326 415" id="s"/><path d="M481 0L54-1118h197c107 314 236 620 325 951 87-331 217-637 324-951h197L670 0H481" id="t"/><path d="M577 24c-279 0-473-224-473-580 0-354 195-576 474-576 218 0 287 134 324 193h14v-551h180V0H922v-173h-20C865-111 790 24 577 24zm27-161c203 0 314-172 314-421 0-247-108-413-314-413-212 0-317 181-317 413 0 235 108 421 317 421" id="u"/><path d="M628 24c-324 0-524-230-524-574 0-343 198-582 503-582 237 0 487 146 487 559v75H286c9 234 145 362 343 362 132 0 231-58 273-172l174 48C1024-91 857 24 628 24zM287-650h624c-17-190-120-322-304-322-192 0-309 151-320 322" id="v"/><g id="a"><use transform="matrix(0.010850694444444444,0,0,0.010850694444444444,0,0)" xlink:href="#l"/><use transform="matrix(0.010850694444444444,0,0,0.010850694444444444,5.967881944444445,0)" xlink:href="#m"/><use transform="matrix(0.010850694444444444,0,0,0.010850694444444444,19.09722222222222,0)" xlink:href="#n"/><use transform="matrix(0.010850694444444444,0,0,0.010850694444444444,26.3671875,0)" xlink:href="#o"/><use transform="matrix(0.010850694444444444,0,0,0.010850694444444444,35.080295138888886,0)" xlink:href="#p"/><use transform="matrix(0.010850694444444444,0,0,0.010850694444444444,40.46223958333333,0)" xlink:href="#q"/><use transform="matrix(0.010850694444444444,0,0,0.010850694444444444,54.09071180555556,0)" xlink:href="#r"/><use transform="matrix(0.010850694444444444,0,0,0.010850694444444444,68.28342013888889,0)" xlink:href="#o"/><use transform="matrix(0.010850694444444444,0,0,0.010850694444444444,76.28038194444444,0)" xlink:href="#s"/><use transform="matrix(0.010850694444444444,0,0,0.010850694444444444,89.17100694444444,0)" xlink:href="#t"/><use transform="matrix(0.010850694444444444,0,0,0.010850694444444444,101.66015625,0)" xlink:href="#p"/><use transform="matrix(0.010850694444444444,0,0,0.010850694444444444,107.04210069444444,0)" xlink:href="#u"/><use transform="matrix(0.010850694444444444,0,0,0.010850694444444444,120.64887152777777,0)" xlink:href="#v"/><use transform="matrix(0.010850694444444444,0,0,0.010850694444444444,133.60460069444443,0)" xlink:href="#o"/></g><path d="M537 14c-226 0-379-139-379-422v-710h180v695c0 172 97 275 253 275 160 0 281-109 281-300v-670h181V0H879v-209C806-46 684 14 537 14" id="w"/><path d="M613 24c-304 0-509-231-509-576 0-350 205-580 509-580 216 0 392 114 453 309l-173 49c-33-115-133-197-280-197-223 0-326 196-326 419 0 220 103 415 326 415 150 0 252-85 285-206l172 49C1010-95 832 24 613 24" id="x"/><path d="M471 26C259 26 90-98 90-318c0-256 228-303 435-329 202-27 287-16 287-108 0-139-79-219-234-219-161 0-248 86-283 164l-173-57c86-203 278-265 451-265 150 0 419 46 419 395V0H815v-152h-12C765-73 660 26 471 26zm31-159c199 0 310-134 310-271v-155c-30 35-226 55-295 64-131 17-246 59-246 186 0 116 97 176 231 176" id="y"/><g id="b"><use transform="matrix(0.010850694444444444,0,0,0.010850694444444444,0,0)" xlink:href="#r"/><use transform="matrix(0.010850694444444444,0,0,0.010850694444444444,14.192708333333332,0)" xlink:href="#o"/><use transform="matrix(0.010850694444444444,0,0,0.010850694444444444,22.189670138888886,0)" xlink:href="#s"/><use transform="matrix(0.010850694444444444,0,0,0.010850694444444444,35.514322916666664,0)" xlink:href="#u"/><use transform="matrix(0.010850694444444444,0,0,0.010850694444444444,49.12109375,0)" xlink:href="#w"/><use transform="matrix(0.010850694444444444,0,0,0.010850694444444444,62.26128472222222,0)" xlink:href="#x"/><use transform="matrix(0.010850694444444444,0,0,0.010850694444444444,74.95659722222223,0)" xlink:href="#n"/><use transform="matrix(0.010850694444444444,0,0,0.010850694444444444,82.2265625,0)" xlink:href="#r"/><use transform="matrix(0.010850694444444444,0,0,0.010850694444444444,96.41927083333333,0)" xlink:href="#y"/><use transform="matrix(0.010850694444444444,0,0,0.010850694444444444,108.89756944444444,0)" xlink:href="#q"/><use transform="matrix(0.010850694444444444,0,0,0.010850694444444444,122.52604166666666,0)" xlink:href="#v"/></g><path d="M180 0v-1490h190v644h782v-644h190V0h-190v-678H370V0H180" id="z"/><g id="c"><use transform="matrix(0.010850694444444444,0,0,0.010850694444444444,0,0)" xlink:href="#r"/><use transform="matrix(0.010850694444444444,0,0,0.010850694444444444,14.192708333333332,0)" xlink:href="#o"/><use transform="matrix(0.010850694444444444,0,0,0.010850694444444444,22.189670138888886,0)" xlink:href="#s"/><use transform="matrix(0.010850694444444444,0,0,0.010850694444444444,35.514322916666664,0)" xlink:href="#u"/><use transform="matrix(0.010850694444444444,0,0,0.010850694444444444,49.12109375,0)" xlink:href="#w"/><use transform="matrix(0.010850694444444444,0,0,0.010850694444444444,62.26128472222222,0)" xlink:href="#x"/><use transform="matrix(0.010850694444444444,0,0,0.010850694444444444,74.95659722222223,0)" xlink:href="#n"/><use transform="matrix(0.010850694444444444,0,0,0.010850694444444444,82.2265625,0)" xlink:href="#z"/><use transform="matrix(0.010850694444444444,0,0,0.010850694444444444,98.74131944444444,0)" xlink:href="#v"/><use transform="matrix(0.010850694444444444,0,0,0.010850694444444444,111.9140625,0)" xlink:href="#y"/><use transform="matrix(0.010850694444444444,0,0,0.010850694444444444,124.3923611111111,0)" xlink:href="#u"/><use transform="matrix(0.010850694444444444,0,0,0.010850694444444444,137.99913194444446,0)" xlink:href="#v"/><use transform="matrix(0.010850694444444444,0,0,0.010850694444444444,150.95486111111111,0)" xlink:href="#o"/></g><g id="d"><use transform="matrix(0.010850694444444444,0,0,0.010850694444444444,0,0)" xlink:href="#r"/><use transform="matrix(0.010850694444444444,0,0,0.010850694444444444,14.192708333333332,0)" xlink:href="#o"/><use transform="matrix(0.010850694444444444,0,0,0.010850694444444444,22.189670138888886,0)" xlink:href="#s"/><use transform="matrix(0.010850694444444444,0,0,0.010850694444444444,35.514322916666664,0)" xlink:href="#u"/><use transform="matrix(0.010850694444444444,0,0,0.010850694444444444,49.12109375,0)" xlink:href="#w"/><use transform="matrix(0.010850694444444444,0,0,0.010850694444444444,62.26128472222222,0)" xlink:href="#x"/><use transform="matrix(0.010850694444444444,0,0,0.010850694444444444,74.95659722222223,0)" xlink:href="#n"/></g><path d="M645 0H180v-1490h484c435 0 692 280 692 742 0 466-257 748-711 748zM370-168h263c363 0 539-218 539-580 0-358-176-574-521-574H370v1154" id="A"/><path d="M338-1490V0H158v-1490h180" id="B"/><path d="M538 24C308 24 148-78 108-271l171-41c32 123 123 178 257 178 156 0 256-77 256-169 0-77-54-128-164-154l-186-44c-203-48-300-148-300-305 0-192 176-326 414-326 230 0 351 112 402 269l-163 42c-31-80-94-158-238-158-133 0-233 69-233 162 0 83 57 129 188 160l169 40c203 48 298 149 298 302 0 196-179 339-441 339" id="C"/><g id="e"><use transform="matrix(0.010850694444444444,0,0,0.010850694444444444,0,0)" xlink:href="#A"/><use transform="matrix(0.010850694444444444,0,0,0.010850694444444444,16.03732638888889,0)" xlink:href="#v"/><use transform="matrix(0.010850694444444444,0,0,0.010850694444444444,28.99305555555556,0)" xlink:href="#n"/><use transform="matrix(0.010850694444444444,0,0,0.010850694444444444,36.37152777777778,0)" xlink:href="#y"/><use transform="matrix(0.010850694444444444,0,0,0.010850694444444444,48.849826388888886,0)" xlink:href="#p"/><use transform="matrix(0.010850694444444444,0,0,0.010850694444444444,54.23177083333333,0)" xlink:href="#B"/><use transform="matrix(0.010850694444444444,0,0,0.010850694444444444,59.61371527777778,0)" xlink:href="#C"/></g><path d="M180 0v-1490h510c348 0 508 194 508 460 0 198-88 351-276 417L1256 0h-220L726-579c-117 2-238 0-356 1V0H180zm190-747h312c235 0 327-108 327-283 0-177-92-293-329-293H370v576" id="D"/><path d="M409 0L70-1118h191c89 329 165 560 243 925 75-353 154-601 240-925h192c85 325 161 564 235 922 77-354 157-598 244-922h191L1267 0h-179c-86-307-176-590-250-913C763-588 675-308 588 0H409" id="E"/><g id="f"><use transform="matrix(0.010850694444444444,0,0,0.010850694444444444,0,0)" xlink:href="#D"/><use transform="matrix(0.010850694444444444,0,0,0.010850694444444444,13.975694444444445,0)" xlink:href="#v"/><use transform="matrix(0.010850694444444444,0,0,0.010850694444444444,26.49739583333333,0)" xlink:href="#t"/><use transform="matrix(0.010850694444444444,0,0,0.010850694444444444,38.986545138888886,0)" xlink:href="#p"/><use transform="matrix(0.010850694444444444,0,0,0.010850694444444444,44.36848958333333,0)" xlink:href="#v"/><use transform="matrix(0.010850694444444444,0,0,0.010850694444444444,56.92274305555555,0)" xlink:href="#E"/></g><path d="M657 26c-323 0-524-166-541-416h195c15 169 171 246 346 246 202 0 356-106 356-265 5-203-294-238-475-293-239-73-380-191-380-389 0-252 224-419 512-419 294 0 499 171 508 396H992c-17-145-151-228-328-228-193 0-321 102-321 242 0 156 175 211 284 241l149 41c160 44 422 134 422 412 0 244-197 432-541 432" id="F"/><g id="g"><use transform="matrix(0.010850694444444444,0,0,0.010850694444444444,0,0)" xlink:href="#F"/><use transform="matrix(0.010850694444444444,0,0,0.010850694444444444,14.2578125,0)" xlink:href="#n"/><use transform="matrix(0.010850694444444444,0,0,0.010850694444444444,21.31076388888889,0)" xlink:href="#s"/><use transform="matrix(0.010850694444444444,0,0,0.010850694444444444,34.635416666666664,0)" xlink:href="#o"/><use transform="matrix(0.010850694444444444,0,0,0.010850694444444444,42.632378472222214,0)" xlink:href="#v"/></g><path fill="#333" d="M49 0l509-1490h400L1480 0h-339l-115-346H497L386 0H49zm524-585h374c-75-213-124-402-192-666-66 268-110 453-182 666" id="G"/><path fill="#333" d="M628 22C291 22 81-210 81-554c0-346 210-578 547-578 265 0 455 142 497 372l-279 52c-25-116-99-188-215-188-160 0-244 139-244 341 0 200 84 341 244 341 116 0 193-74 217-195l279 51C1085-123 896 22 628 22" id="H"/><path fill="#333" d="M683-1118v229H474v562c0 71 29 104 102 104 23 0 73-7 95-13l43 225C647 9 580 16 520 16 296 16 174-96 174-301v-588H20v-229h154v-266h300v266h209" id="I"/><path fill="#333" d="M128 0v-1118h300V0H128zm150-1264c-91 0-165-68-165-154 0-85 74-154 165-154 90 0 165 69 165 154 0 86-75 154-165 154" id="J"/><path fill="#333" d="M443 0L31-1118h319c90 293 199 572 268 885 66-313 175-593 264-885h315L784 0H443" id="K"/><path fill="#333" d="M633 22C291 22 81-200 81-553c0-345 210-579 537-579 292 0 525 185 525 567v84H378c7 183 109 277 260 277 105 0 184-46 216-132l272 51C1071-99 893 22 633 22zM380-669h474c-15-146-94-237-233-237-143 0-229 99-241 237" id="L"/><g id="h"><use transform="matrix(0.008680555555555556,0,0,0.008680555555555556,0,0)" xlink:href="#G"/><use transform="matrix(0.008680555555555556,0,0,0.008680555555555556,12.864583333333334,0)" xlink:href="#H"/><use transform="matrix(0.008680555555555556,0,0,0.008680555555555556,23.32465277777778,0)" xlink:href="#I"/><use transform="matrix(0.008680555555555556,0,0,0.008680555555555556,29.835069444444446,0)" xlink:href="#J"/><use transform="matrix(0.008680555555555556,0,0,0.008680555555555556,34.65277777777778,0)" xlink:href="#K"/><use transform="matrix(0.008680555555555556,0,0,0.008680555555555556,44.99131944444445,0)" xlink:href="#L"/></g><path fill="#333" d="M135 0v-1490h591c327 0 492 160 492 383 0 177-115 286-268 320v15c168 8 326 140 326 361 0 236-176 411-512 411H135zm305-251h264c179 0 258-76 258-189 0-125-97-215-250-215H440v404zm0-613h241c131 0 228-74 228-194 0-109-79-183-222-183H440v377" id="M"/><path fill="#333" d="M428-647V0H128v-1118h283l4 231c63-156 176-245 348-245 232 0 384 159 384 421V0H847v-659c0-139-76-222-202-222-128 0-217 86-217 234" id="N"/><path fill="#333" d="M537 19C279 19 81-185 81-557c0-382 206-575 454-575 190 0 278 113 318 202h10v-560h300V0H868v-179h-15C812-89 719 19 537 19zm92-241c153 0 240-134 240-336 0-203-86-334-240-334-158 0-240 138-240 334 0 197 84 336 240 336" id="O"/><path fill="#333" d="M625 442c-280 0-454-114-503-274l258-72c28 63 97 128 243 128 153 0 246-69 246-216v-206h-23C805-108 717-16 536-16 284-16 81-191 81-561c0-378 208-571 456-571 188 0 280 113 321 202h13v-188h295V-9c0 303-226 451-541 451zm5-686c153 0 240-119 240-319 0-198-86-329-240-329-158 0-241 137-241 329 0 195 85 319 241 319" id="P"/><g id="i"><use transform="matrix(0.008680555555555556,0,0,0.008680555555555556,0,0)" xlink:href="#M"/><use transform="matrix(0.008680555555555556,0,0,0.008680555555555556,11.762152777777779,0)" xlink:href="#J"/><use transform="matrix(0.008680555555555556,0,0,0.008680555555555556,16.579861111111114,0)" xlink:href="#N"/><use transform="matrix(0.008680555555555556,0,0,0.008680555555555556,27.64756944444445,0)" xlink:href="#O"/><use transform="matrix(0.008680555555555556,0,0,0.008680555555555556,38.85416666666667,0)" xlink:href="#J"/><use transform="matrix(0.008680555555555556,0,0,0.008680555555555556,43.67187500000001,0)" xlink:href="#N"/><use transform="matrix(0.008680555555555556,0,0,0.008680555555555556,54.73958333333334,0)" xlink:href="#P"/></g><path fill="#333" d="M135 0v-1490h581c339 0 533 210 533 503 0 295-197 500-540 500H440V0H135zm305-733h220c186 0 274-104 274-254s-88-251-275-251H440v505" id="Q"/><path fill="#333" d="M440 22C227 22 68-92 68-313c0-250 202-322 422-343 195-21 271-24 271-105 0-95-63-149-175-149-116 0-187 57-211 129l-275-46c57-194 237-305 487-305 240 0 474 108 474 379V0H777v-155h-10C713-51 605 22 440 22zm85-211c140 0 238-93 238-211v-121c-37 26-156 42-222 51-111 16-185 59-185 149 0 87 70 132 169 132" id="R"/><path fill="#333" d="M572 22C302 22 117-98 78-306l279-48c29 105 101 156 224 156 114 0 185-48 185-115 0-118-228-130-337-155-215-49-322-150-322-317 0-215 187-347 470-347 265 0 424 116 466 298l-266 47c-24-76-87-130-196-130-98 0-174 46-174 113 0 56 38 95 144 117l201 40c216 44 320 143 320 302 0 220-207 367-500 367" id="S"/><g id="j"><use transform="matrix(0.008680555555555556,0,0,0.008680555555555556,0,0)" xlink:href="#Q"/><use transform="matrix(0.008680555555555556,0,0,0.008680555555555556,11.293402777777779,0)" xlink:href="#R"/><use transform="matrix(0.008680555555555556,0,0,0.008680555555555556,21.614583333333336,0)" xlink:href="#S"/><use transform="matrix(0.008680555555555556,0,0,0.008680555555555556,31.571180555555557,0)" xlink:href="#S"/><use transform="matrix(0.008680555555555556,0,0,0.008680555555555556,41.52777777777778,0)" xlink:href="#J"/><use transform="matrix(0.008680555555555556,0,0,0.008680555555555556,46.345486111111114,0)" xlink:href="#K"/><use transform="matrix(0.008680555555555556,0,0,0.008680555555555556,56.68402777777778,0)" xlink:href="#L"/></g><path fill="#333" d="M789 20C394 20 94-260 94-744c0-487 300-766 695-766s695 279 695 766c0 485-300 764-695 764zm0-271c231 0 385-174 385-493 0-321-154-495-385-495s-385 175-385 495c0 319 154 493 385 493" id="T"/><path fill="#333" d="M754 19C571 19 479-89 437-179h-14V0H128v-1490h300v560h9c41-89 129-202 319-202 248 0 453 193 453 575 0 372-197 576-455 576zm-92-241c156 0 240-139 240-336 0-196-83-334-240-334-154 0-241 131-241 334 0 202 88 336 241 336" id="U"/><path fill="#333" d="M128 0v-1118h290v195h12c54-169 184-238 367-200v268c-27-8-86-15-130-15-138 0-239 95-239 234V0H128" id="V"/><g id="k"><use transform="matrix(0.008680555555555556,0,0,0.008680555555555556,0,0)" xlink:href="#T"/><use transform="matrix(0.008680555555555556,0,0,0.008680555555555556,13.697916666666668,0)" xlink:href="#U"/><use transform="matrix(0.008680555555555556,0,0,0.008680555555555556,24.904513888888893,0)" xlink:href="#S"/><use transform="matrix(0.008680555555555556,0,0,0.008680555555555556,34.861111111111114,0)" xlink:href="#L"/><use transform="matrix(0.008680555555555556,0,0,0.008680555555555556,45.45138888888889,0)" xlink:href="#V"/><use transform="matrix(0.008680555555555556,0,0,0.008680555555555556,52.96875000000001,0)" xlink:href="#K"/><use transform="matrix(0.008680555555555556,0,0,0.008680555555555556,63.30729166666667,0)" xlink:href="#L"/><use transform="matrix(0.008680555555555556,0,0,0.008680555555555556,73.89756944444446,0)" xlink:href="#V"/></g></defs></g></svg>