<svg xmlns="http://www.w3.org/2000/svg" xmlns:xlink="http://www.w3.org/1999/xlink" xmlns:lucid="lucid" width="583"
     height="382">
    <g transform="translate(-418.5000499999989 -159)" lucid:page-tab-id="0_0">
        <path d="M640 166a6 6 0 0 1 6-6h128a6 6 0 0 1 6 6v68a6 6 0 0 1-6 6H646a6 6 0 0 1-6-6z" stroke="#000"
              stroke-width="2" fill-opacity="0" id="initial-state"/>
        <use xlink:href="#a" transform="matrix(1,0,0,1,652,172) translate(42.12543402777778 35.52777777777778)"/>
        <path d="M740 241.5v61.12" stroke="#3a414a" fill="none"/>
        <path d="M740.48 241.5h-.96v-.5h.96z" stroke="#3a414a" stroke-width=".05" fill="#3a414a"/>
        <path d="M740 317.38l-4.63-14.26h9.26z" stroke="#3a414a" fill="#3a414a"/>
        <use xlink:href="#b"
             transform="matrix(1,0,0,1,747.9999981770261,279.91145833333337) translate(0 17.22222222222222)"/>
        <path d="M640 326a6 6 0 0 1 6-6h128a6 6 0 0 1 6 6v68a6 6 0 0 1-6 6H646a6 6 0 0 1-6-6z" stroke="#000"
              stroke-width="2" fill-opacity="0" id="pending-state"/>
        <use xlink:href="#c" transform="matrix(1,0,0,1,652,332) translate(15.047526041666671 35.52777777777778)"/>
        <path d="M685.3 401.5V494a6 6 0 0 1-6 6H617.4" stroke="#3a414a" fill="none"/>
        <path d="M685.8 401.5h-.96v-.5h.95z" stroke="#3a414a" stroke-width=".05" fill="#3a414a"/>
        <path d="M602.62 500l14.26-4.63v9.26z" stroke="#3a414a" fill="#3a414a"/>
        <use xlink:href="#d" transform="matrix(1,0,0,1,581.2093885918351,420.578125) translate(0 17.22222222222222)"/>
        <path d="M460 466a6 6 0 0 1 6-6h128a6 6 0 0 1 6 6v68a6 6 0 0 1-6 6H466a6 6 0 0 1-6-6z" stroke="#000"
              stroke-width="2" fill-opacity="0" id="success-state"/>
        <use xlink:href="#e" transform="matrix(1,0,0,1,472,472) translate(13.398220486111114 35.52777777777778)"/>
        <path d="M820 466a6 6 0 0 1 6-6h128a6 6 0 0 1 6 6v68a6 6 0 0 1-6 6H826a6 6 0 0 1-6-6z" stroke="#000"
              stroke-width="2" fill-opacity="0" id="error-state"/>
        <use xlink:href="#f" transform="matrix(1,0,0,1,832,472) translate(32.12109375 35.52777777777778)"/>
        <path d="M734.7 401.5V494a6 6 0 0 0 6 6h61.92" stroke="#3a414a" fill="none"/>
        <path d="M735.16 401.5h-.95v-.5h.96z" stroke="#3a414a" stroke-width=".05" fill="#3a414a"/>
        <path d="M817.38 500l-14.26 4.63v-9.26z" stroke="#3a414a" fill="#3a414a"/>
        <use xlink:href="#g"
             transform="matrix(1,0,0,1,742.6881769427525,419.91145833333337) translate(0 17.22222222222222)"/>
        <path d="M681.33 318.5v-61.12" stroke="#3a414a" fill="none"/>
        <path d="M681.8 319h-.94v-.5h.95z" stroke="#3a414a" stroke-width=".05" fill="#3a414a"/>
        <path d="M681.33 242.62l4.64 14.26h-9.27z" stroke="#3a414a" fill="#3a414a"/>
        <use xlink:href="#h"
             transform="matrix(1,0,0,1,624.2274287326175,277.91145833333337) translate(0 17.22222222222222)"/>
        <path d="M961.5 500H995a6 6 0 0 0 6-6V206a6 6 0 0 0-6-6H797.38" stroke="#3a414a" fill="none"/>
        <path d="M961.5 500.48h-.5v-.96h.5z" stroke="#3a414a" stroke-width=".05" fill="#3a414a"/>
        <path d="M782.62 200l14.26-4.63v9.26z" stroke="#3a414a" fill="#3a414a"/>
        <use xlink:href="#h" transform="matrix(1,0,0,1,943.8940472222232,280.578125) translate(0 17.22222222222222)"/>
        <path d="M458.5 500H425a6 6 0 0 1-6-6V206a6 6 0 0 1 6-6h197.62" stroke="#3a414a" fill="none"/>
        <path d="M459 500.48h-.5v-.96h.5z" stroke="#3a414a" stroke-width=".05" fill="#3a414a"/>
        <path d="M637.38 200l-14.26 4.63v-9.26z" stroke="#3a414a" fill="#3a414a"/>
        <use xlink:href="#h"
             transform="matrix(1,0,0,1,427.0000499999989,278.57812499999994) translate(0 17.22222222222222)"/>
        <path d="M530 458.5V366a6 6 0 0 1 6-6h86.62" stroke="#3a414a" fill="none"/>
        <path d="M530.48 459h-.96v-.5h.96z" stroke="#3a414a" stroke-width=".05" fill="#3a414a"/>
        <path d="M637.38 360l-14.26 4.63v-9.26z" stroke="#3a414a" fill="#3a414a"/>
        <use xlink:href="#b"
             transform="matrix(1,0,0,1,452.1996527777777,397.91145833333337) translate(0 17.22222222222222)"/>
        <path d="M890 458.5V366a6 6 0 0 0-6-6h-86.62" stroke="#3a414a" fill="none"/>
        <path d="M890.48 459h-.96v-.5h.96z" stroke="#3a414a" stroke-width=".05" fill="#3a414a"/>
        <path d="M782.62 360l14.26-4.63v9.26z" stroke="#3a414a" fill="#3a414a"/>
        <use xlink:href="#b"
             transform="matrix(1,0,0,1,898.0000000000001,397.91145833333337) translate(0 17.22222222222222)"/>
        <defs>
            <path d="M370-1490V0H180v-1490h190" id="i"/>
            <path d="M338-670V0H158v-1118h173l1 207c72-158 192-221 342-221 226 0 378 139 378 422V0H872v-695c0-172-96-275-252-275-161 0-282 109-282 300"
                  id="j"/>
            <path d="M158 0v-1118h180V0H158zm91-1301c-68 0-125-53-125-119s57-119 125-119c69 0 126 53 126 119s-57 119-126 119"
                  id="k"/>
            <path d="M598-1118v154H368v674c0 100 37 144 132 144 23 0 62-6 92-12L629-6c-37 13-88 20-134 20-193 0-307-107-307-290v-688H20v-154h168v-266h180v266h230"
                  id="l"/>
            <g id="a">
                <use transform="matrix(0.010850694444444444,0,0,0.010850694444444444,0,0)" xlink:href="#i"/>
                <use transform="matrix(0.010850694444444444,0,0,0.010850694444444444,5.967881944444445,0)"
                     xlink:href="#j"/>
                <use transform="matrix(0.010850694444444444,0,0,0.010850694444444444,19.09722222222222,0)"
                     xlink:href="#k"/>
                <use transform="matrix(0.010850694444444444,0,0,0.010850694444444444,24.479166666666664,0)"
                     xlink:href="#l"/>
            </g>
            <path fill="#333" d="M135 0v-1490h997v253H440v360h640v249H440v375h694V0H135" id="m"/>
            <path fill="#333"
                  d="M42 0l360-574-338-544h324c72 124 151 261 209 394 58-134 140-271 215-394h318L785-570 1146 0H824c-79-136-169-280-234-425C528-278 439-134 360 0H42"
                  id="n"/>
            <path fill="#333"
                  d="M633 22C291 22 81-200 81-553c0-345 210-579 537-579 292 0 525 185 525 567v84H378c7 183 109 277 260 277 105 0 184-46 216-132l272 51C1071-99 893 22 633 22zM380-669h474c-15-146-94-237-233-237-143 0-229 99-241 237"
                  id="o"/>
            <path fill="#333"
                  d="M628 22C291 22 81-210 81-554c0-346 210-578 547-578 265 0 455 142 497 372l-279 52c-25-116-99-188-215-188-160 0-244 139-244 341 0 200 84 341 244 341 116 0 193-74 217-195l279 51C1085-123 896 22 628 22"
                  id="p"/>
            <path fill="#333"
                  d="M513 14c-232 0-385-159-385-421v-711h300v659c0 139 76 222 202 222 127 0 217-86 217-234v-647h301V0H864l-4-232C797-74 683 14 513 14"
                  id="q"/>
            <path fill="#333"
                  d="M683-1118v229H474v562c0 71 29 104 102 104 23 0 73-7 95-13l43 225C647 9 580 16 520 16 296 16 174-96 174-301v-588H20v-229h154v-266h300v266h209"
                  id="r"/>
            <g id="b">
                <use transform="matrix(0.008680555555555556,0,0,0.008680555555555556,0,0)" xlink:href="#m"/>
                <use transform="matrix(0.008680555555555556,0,0,0.008680555555555556,10.79861111111111,0)"
                     xlink:href="#n"/>
                <use transform="matrix(0.008680555555555556,0,0,0.008680555555555556,20.75520833333333,0)"
                     xlink:href="#o"/>
                <use transform="matrix(0.008680555555555556,0,0,0.008680555555555556,31.345486111111114,0)"
                     xlink:href="#p"/>
                <use transform="matrix(0.008680555555555556,0,0,0.008680555555555556,41.80555555555556,0)"
                     xlink:href="#q"/>
                <use transform="matrix(0.008680555555555556,0,0,0.008680555555555556,52.87326388888889,0)"
                     xlink:href="#r"/>
                <use transform="matrix(0.008680555555555556,0,0,0.008680555555555556,59.210069444444436,0)"
                     xlink:href="#o"/>
            </g>
            <path d="M180 0v-1490h510c348 0 508 209 508 474 0 266-160 477-507 477H370V0H180zm190-706h312c236 0 327-133 327-310 0-176-91-307-329-307H370v617"
                  id="s"/>
            <path d="M628 24c-324 0-524-230-524-574 0-343 198-582 503-582 237 0 487 146 487 559v75H286c9 234 145 362 343 362 132 0 231-58 273-172l174 48C1024-91 857 24 628 24zM287-650h624c-17-190-120-322-304-322-192 0-309 151-320 322"
                  id="t"/>
            <path d="M577 24c-279 0-473-224-473-580 0-354 195-576 474-576 218 0 287 134 324 193h14v-551h180V0H922v-173h-20C865-111 790 24 577 24zm27-161c203 0 314-172 314-421 0-247-108-413-314-413-212 0-317 181-317 413 0 235 108 421 317 421"
                  id="u"/>
            <path d="M611 442c-248 0-391-105-460-228l146-94c47 65 117 165 314 165 178 0 307-82 307-266v-224h-17C863-141 792-18 576-18c-268 0-472-195-472-546 0-346 197-568 476-568 216 0 288 133 326 193h17v-179h175V29c0 289-215 413-487 413zm-5-620c203 0 314-146 314-390 0-237-108-403-314-403-213 0-319 180-319 403 0 230 109 390 319 390"
                  id="v"/>
            <g id="c">
                <use transform="matrix(0.010850694444444444,0,0,0.010850694444444444,0,0)" xlink:href="#s"/>
                <use transform="matrix(0.010850694444444444,0,0,0.010850694444444444,14.073350694444445,0)"
                     xlink:href="#t"/>
                <use transform="matrix(0.010850694444444444,0,0,0.010850694444444444,27.029079861111104,0)"
                     xlink:href="#j"/>
                <use transform="matrix(0.010850694444444444,0,0,0.010850694444444444,40.158420138888886,0)"
                     xlink:href="#u"/>
                <use transform="matrix(0.010850694444444444,0,0,0.010850694444444444,53.76519097222221,0)"
                     xlink:href="#k"/>
                <use transform="matrix(0.010850694444444444,0,0,0.010850694444444444,59.14713541666666,0)"
                     xlink:href="#j"/>
                <use transform="matrix(0.010850694444444444,0,0,0.010850694444444444,72.27647569444443,0)"
                     xlink:href="#v"/>
            </g>
            <path fill="#333"
                  d="M628 22C291 22 81-210 81-554c0-346 210-578 547-578 336 0 547 232 547 578 0 344-211 576-547 576zm0-236c160 0 242-146 242-341 0-197-82-341-242-341S387-753 387-555c0 195 81 341 241 341"
                  id="w"/>
            <path fill="#333"
                  d="M428-647V0H128v-1118h283l4 231c63-156 176-245 348-245 232 0 384 159 384 421V0H847v-659c0-139-76-222-202-222-128 0-217 86-217 234"
                  id="x"/>
            <path fill="#333"
                  d="M681 22C323 22 94-145 85-462h297c10 151 131 226 296 226 163 0 271-77 271-190 0-102-95-149-257-189l-164-41c-252-61-403-188-403-405 0-269 236-449 560-449 330 0 546 183 551 445H941c-11-119-106-188-259-188-156 0-244 72-244 172-3 156 226 185 373 221 250 61 445 186 445 436 0 271-213 446-575 446"
                  id="y"/>
            <path fill="#333"
                  d="M572 22C302 22 117-98 78-306l279-48c29 105 101 156 224 156 114 0 185-48 185-115 0-118-228-130-337-155-215-49-322-150-322-317 0-215 187-347 470-347 265 0 424 116 466 298l-266 47c-24-76-87-130-196-130-98 0-174 46-174 113 0 56 38 95 144 117l201 40c216 44 320 143 320 302 0 220-207 367-500 367"
                  id="z"/>
            <g id="d">
                <use transform="matrix(0.008680555555555556,0,0,0.008680555555555556,0,0)" xlink:href="#w"/>
                <use transform="matrix(0.008680555555555556,0,0,0.008680555555555556,10.902777777777779,0)"
                     xlink:href="#x"/>
                <use transform="matrix(0.008680555555555556,0,0,0.008680555555555556,21.970486111111114,0)"
                     xlink:href="#y"/>
                <use transform="matrix(0.008680555555555556,0,0,0.008680555555555556,33.611111111111114,0)"
                     xlink:href="#q"/>
                <use transform="matrix(0.008680555555555556,0,0,0.008680555555555556,44.67881944444445,0)"
                     xlink:href="#p"/>
                <use transform="matrix(0.008680555555555556,0,0,0.008680555555555556,55.13888888888889,0)"
                     xlink:href="#p"/>
                <use transform="matrix(0.008680555555555556,0,0,0.008680555555555556,65.59895833333334,0)"
                     xlink:href="#o"/>
                <use transform="matrix(0.008680555555555556,0,0,0.008680555555555556,76.18923611111111,0)"
                     xlink:href="#z"/>
                <use transform="matrix(0.008680555555555556,0,0,0.008680555555555556,86.14583333333334,0)"
                     xlink:href="#z"/>
            </g>
            <path d="M657 26c-323 0-524-166-541-416h195c15 169 171 246 346 246 202 0 356-106 356-265 5-203-294-238-475-293-239-73-380-191-380-389 0-252 224-419 512-419 294 0 499 171 508 396H992c-17-145-151-228-328-228-193 0-321 102-321 242 0 156 175 211 284 241l149 41c160 44 422 134 422 412 0 244-197 432-541 432"
                  id="A"/>
            <path d="M537 14c-226 0-379-139-379-422v-710h180v695c0 172 97 275 253 275 160 0 281-109 281-300v-670h181V0H879v-209C806-46 684 14 537 14"
                  id="B"/>
            <path d="M613 24c-304 0-509-231-509-576 0-350 205-580 509-580 216 0 392 114 453 309l-173 49c-33-115-133-197-280-197-223 0-326 196-326 419 0 220 103 415 326 415 150 0 252-85 285-206l172 49C1010-95 832 24 613 24"
                  id="C"/>
            <path d="M538 24C308 24 148-78 108-271l171-41c32 123 123 178 257 178 156 0 256-77 256-169 0-77-54-128-164-154l-186-44c-203-48-300-148-300-305 0-192 176-326 414-326 230 0 351 112 402 269l-163 42c-31-80-94-158-238-158-133 0-233 69-233 162 0 83 57 129 188 160l169 40c203 48 298 149 298 302 0 196-179 339-441 339"
                  id="D"/>
            <g id="e">
                <use transform="matrix(0.010850694444444444,0,0,0.010850694444444444,0,0)" xlink:href="#A"/>
                <use transform="matrix(0.010850694444444444,0,0,0.010850694444444444,14.2578125,0)" xlink:href="#B"/>
                <use transform="matrix(0.010850694444444444,0,0,0.010850694444444444,27.39800347222222,0)"
                     xlink:href="#C"/>
                <use transform="matrix(0.010850694444444444,0,0,0.010850694444444444,40.09331597222222,0)"
                     xlink:href="#C"/>
                <use transform="matrix(0.010850694444444444,0,0,0.010850694444444444,52.78862847222222,0)"
                     xlink:href="#t"/>
                <use transform="matrix(0.010850694444444444,0,0,0.010850694444444444,65.74435763888889,0)"
                     xlink:href="#D"/>
                <use transform="matrix(0.010850694444444444,0,0,0.010850694444444444,77.47395833333333,0)"
                     xlink:href="#D"/>
            </g>
            <path d="M180 0v-1490h908v168H370v486h669v168H370v500h727V0H180" id="E"/>
            <path d="M158 0v-1118h174v172h12c41-113 157-188 290-188 26 0 70 2 91 3v181c-11-2-60-10-108-10-161 0-279 109-279 260V0H158"
                  id="F"/>
            <path d="M613 24c-304 0-509-231-509-576 0-350 205-580 509-580 305 0 511 230 511 580 0 345-206 576-511 576zm0-161c226 0 329-195 329-415 0-222-103-419-329-419-223 0-326 196-326 419 0 220 103 415 326 415"
                  id="G"/>
            <g id="f">
                <use transform="matrix(0.010850694444444444,0,0,0.010850694444444444,0,0)" xlink:href="#E"/>
                <use transform="matrix(0.010850694444444444,0,0,0.010850694444444444,13.35720486111111,0)"
                     xlink:href="#F"/>
                <use transform="matrix(0.010850694444444444,0,0,0.010850694444444444,22.0703125,0)" xlink:href="#F"/>
                <use transform="matrix(0.010850694444444444,0,0,0.010850694444444444,30.06727430555556,0)"
                     xlink:href="#G"/>
                <use transform="matrix(0.010850694444444444,0,0,0.010850694444444444,43.391927083333336,0)"
                     xlink:href="#F"/>
            </g>
            <path fill="#333"
                  d="M128 0v-1118h290v195h12c54-169 184-238 367-200v268c-27-8-86-15-130-15-138 0-239 95-239 234V0H128"
                  id="H"/>
            <g id="g">
                <use transform="matrix(0.008680555555555556,0,0,0.008680555555555556,0,0)" xlink:href="#w"/>
                <use transform="matrix(0.008680555555555556,0,0,0.008680555555555556,10.902777777777779,0)"
                     xlink:href="#x"/>
                <use transform="matrix(0.008680555555555556,0,0,0.008680555555555556,21.970486111111114,0)"
                     xlink:href="#m"/>
                <use transform="matrix(0.008680555555555556,0,0,0.008680555555555556,32.76909722222223,0)"
                     xlink:href="#H"/>
                <use transform="matrix(0.008680555555555556,0,0,0.008680555555555556,40.1388888888889,0)"
                     xlink:href="#H"/>
                <use transform="matrix(0.008680555555555556,0,0,0.008680555555555556,46.94444444444446,0)"
                     xlink:href="#w"/>
                <use transform="matrix(0.008680555555555556,0,0,0.008680555555555556,57.847222222222236,0)"
                     xlink:href="#H"/>
            </g>
            <path fill="#333"
                  d="M135 0v-1490h581c339 0 533 192 533 485 0 204-94 351-264 424L1302 0H964L680-532H440V0H135zm305-779h220c186 0 274-77 274-226 0-150-88-233-275-233H440v459"
                  id="I"/>
            <g id="h">
                <use transform="matrix(0.008680555555555556,0,0,0.008680555555555556,0,0)" xlink:href="#I"/>
                <use transform="matrix(0.008680555555555556,0,0,0.008680555555555556,11.458333333333334,0)"
                     xlink:href="#o"/>
                <use transform="matrix(0.008680555555555556,0,0,0.008680555555555556,22.048611111111114,0)"
                     xlink:href="#z"/>
                <use transform="matrix(0.008680555555555556,0,0,0.008680555555555556,32.005208333333336,0)"
                     xlink:href="#o"/>
                <use transform="matrix(0.008680555555555556,0,0,0.008680555555555556,42.595486111111114,0)"
                     xlink:href="#r"/>
            </g>
        </defs>
    </g>
</svg>