<?xml version="1.0" encoding="UTF-8" standalone="no"?>
<!-- Created with Inkscape (http://www.inkscape.org/) -->

<svg
   width="126.19592mm"
   height="43.06123mm"
   viewBox="0 0 126.19592 43.06123"
   version="1.1"
   id="svg1"
   xmlns="http://www.w3.org/2000/svg"
   xmlns:svg="http://www.w3.org/2000/svg">
  <defs
     id="defs1" />
  <g
     id="layer1"
     style="display:inline"
     transform="translate(-41.904154,-168.00498)">
    <path
       id="path9-0"
       style="fill:#00D8C0;fill-opacity:1;stroke:#ffffff;stroke-width:0.2;stroke-dasharray:none;stroke-opacity:0.2"
       d="m 114.89996,168.10498 c -1.06916,0 -1.9358,0.86714 -1.9358,1.96733 v 3.84059 h -2.61224 c -1.09993,0 -1.9668,0.86664 -1.9668,1.9358 0,1.06918 0.86687,1.9358 1.9668,1.9358 h 2.61224 v 13.58211 c 0,1.09993 0.86664,1.96681 1.9358,1.96681 1.06916,0 1.9358,-0.86688 1.9358,-1.96681 V 177.7845 h 2.55023 c 1.1002,0 1.96681,-0.86662 1.96681,-1.9358 0,-1.06916 -0.86661,-1.9358 -1.96681,-1.9358 h -2.55023 v -3.84059 c 0,-1.10019 -0.86664,-1.96733 -1.9358,-1.96733 z" />
    <path
       id="path6-7"
       style="fill:#00D8C0;fill-opacity:1;stroke:#ffffff;stroke-width:0.2;stroke-dasharray:none;stroke-opacity:0.2"
       d="m 105.8658,183.59235 c 0,-3.2075 -2.6002,-5.8077 -5.8077,-5.8077 -3.20751,0 -5.8077,2.6002 -5.8077,5.82483 1.2e-4,4.19734 0,4.49999 0,7.73546 0,1.07815 -0.866741,1.94487 -1.935903,1.94487 -1.069175,0 -1.935901,-0.86672 -1.935901,-1.94487 0,-3.23547 9.4e-5,-3.11312 0,-7.74183 0,-5.35659 4.333654,-9.69026 9.679504,-9.69026 5.34584,0 9.6795,4.33367 9.6795,9.69275 v 7.68735 c 0,1.11218 -0.86674,1.97892 -1.9359,1.97892 -1.06916,0 -1.9359,-0.86674 -1.9359,-1.97892 z" />
    <path
       id="path9-9-5"
       style="fill:#00D8C0;fill-opacity:1;stroke:#ffffff;stroke-width:0.2;stroke-dasharray:none;stroke-opacity:0.2"
       d="m 124.57948,173.88189 c -1.06917,0 -1.9358,0.86662 -1.9358,1.96681 v 7.74371 7.7742 c 0,1.09993 0.86663,1.96681 1.9358,1.96681 1.06915,0 1.9358,-0.86688 1.9358,-1.96681 v -7.75921 c 0,-3.23303 2.62074,-5.85381 5.83065,-5.83841 1.0461,0.0155 1.91306,-0.85113 1.91306,-1.92029 0,-1.06916 -0.86696,-1.936 -1.91306,-1.9513 -2.18669,-0.006 -4.20651,0.71897 -5.83117,1.94458 -0.004,-1.09694 -0.86834,-1.96009 -1.93528,-1.96009 z" />
    <path
       id="path9-9-8-0"
       style="fill:#00D8C0;fill-opacity:1;stroke:#ffffff;stroke-width:0.2;stroke-dasharray:none;stroke-opacity:0.2"
       d="m 137.48551,193.318 c -1.06916,0 -1.9359,-0.86674 -1.9359,-1.96666 v -10.95446 c 0,-1.10019 0.86674,-1.96693 1.9359,-1.96693 1.06916,0 1.9359,0.86674 1.9359,1.96693 v 10.95446 c 0,1.09992 -0.86674,1.96666 -1.9359,1.96666 z" />
    <circle
       style="fill:#00D8C0;fill-opacity:1;stroke:#ffffff;stroke-width:0.2;stroke-dasharray:none;stroke-opacity:0.2"
       id="path11-3"
       cx="137.48552"
       cy="175.84875"
       r="1.9358984" />
    <path
       id="path12-0"
       style="fill:#00D8C0;fill-opacity:1;stroke:#ffffff;stroke-width:0.2;stroke-dasharray:none;stroke-opacity:0.2"
       d="m 159.42593,173.88189 c -1.06916,0 -1.93632,0.86662 -1.93632,1.96681 v 0.001 a 9.6795038,9.6795038 0 0 0 -5.8074,-1.93683 9.6795038,9.6795038 0 0 0 -9.67951,9.67951 9.6795038,9.6795038 0 0 0 9.67951,9.67951 9.6795038,9.6795038 0 0 0 5.8074,-1.9668 v 3.82199 c 0,3.28811 -2.60016,5.88852 -5.83168,5.88078 l -93.953959,-0.008 c -1.099919,0 -1.966805,0.86664 -1.966805,1.9358 0,1.06916 0.866886,1.93631 1.966805,1.93631 l 93.934319,0.005 c 5.38943,0.0105 9.72344,-4.32282 9.72344,-9.74927 v -11.5347 -7.74371 c 0,-1.10019 -0.86662,-1.96681 -1.9358,-1.96681 z m -7.74372,3.90312 a 5.8077041,5.8077041 0 0 1 5.8074,5.80172 v 0.0114 a 5.8077041,5.8077041 0 0 1 -5.8074,5.80223 5.8077041,5.8077041 0 0 1 -5.80791,-5.80792 5.8077041,5.8077041 0 0 1 5.80791,-5.8074 z" />
    <path
       id="path15"
       style="fill:#00D8C0;fill-opacity:1;stroke:#ffffff;stroke-width:0.2;stroke-dasharray:none;stroke-opacity:0.2"
       d="m 85.216195,193.318 c -1.069162,0 -1.9359,-0.86674 -1.9359,-1.96666 v -20.98655 c 0,-1.10019 0.866738,-1.96693 1.9359,-1.96693 1.069162,0 1.935901,0.86674 1.935901,1.96693 v 20.98655 c 0,1.09992 -0.866739,1.96666 -1.935901,1.96666 z" />
    <path
       id="path2-2-3"
       style="fill:#888888;fill-opacity:1;stroke:#ffffff;stroke-width:0.2;stroke-dasharray:none;stroke-opacity:0.2"
       d="m 81.734029,179.04592 -23.717415,0.004 c -8.78429,0.0146 -16.011886,7.2611 -16.01246,16.03158 v 5.1e-4 5.2e-4 c 5.65e-4,8.77049 7.109474,15.87969 15.953032,15.8812 h 9.220626 c 1.249561,0 2.206067,-0.97006 2.206067,-2.16731 0,-1.19725 -0.956114,-2.16783 -2.231906,-2.16783 l -8.990665,-0.0114 c -6.451791,-0.0129 -11.597742,-5.20849 -11.597742,-11.61738 0,-6.40889 5.145707,-11.60343 11.493355,-11.60343 6.347649,0 11.493356,5.19457 11.493356,11.60343 0,8.81624 7.059408,15.96376 15.695682,15.9644 l 66.275541,0.002 c 9.23414,-3e-5 16.47858,-7.14834 16.47858,-15.96595 0,-4.51466 -1.90726,-8.58331 -5.00021,-11.48715 v 9.75754 c 0.086,0.56895 0.14469,1.14707 0.14469,1.73995 0,6.40551 -5.19367,11.59754 -11.62978,11.60756 l -66.117409,0.009 c -6.422849,0 -11.565661,-5.20583 -11.566219,-11.62771 v -5.2e-4 -5.2e-4 c 4.13e-4,-5.32739 3.16079,-9.8136 7.902877,-11.17968 z" />
  </g>
</svg>
